<svg width="66" height="20" viewBox="0 0 66 20" fill="none" xmlns="http://www.w3.org/2000/svg">
<path d="M60.2983 16.95C59.4316 16.95 58.6916 16.8566 58.0783 16.67C57.4783 16.47 56.9849 16.23 56.5983 15.95C56.2249 15.67 55.9449 15.3833 55.7583 15.09C55.5716 14.7833 55.4716 14.5233 55.4583 14.31C55.4449 14.1633 55.4916 14.0433 55.5983 13.95C55.7049 13.8433 55.8183 13.79 55.9383 13.79H58.2183C58.2583 13.79 58.2916 13.7966 58.3183 13.81C58.3449 13.8233 58.3849 13.85 58.4383 13.89C58.6116 13.9833 58.7849 14.1033 58.9583 14.25C59.1316 14.3833 59.3316 14.5033 59.5583 14.61C59.7849 14.7166 60.0583 14.77 60.3783 14.77C60.7516 14.77 61.0649 14.6966 61.3183 14.55C61.5716 14.4033 61.6983 14.1833 61.6983 13.89C61.6983 13.6766 61.6383 13.5033 61.5183 13.37C61.3983 13.2233 61.1516 13.0833 60.7783 12.95C60.4183 12.8166 59.8716 12.6833 59.1383 12.55C58.4449 12.39 57.8383 12.1833 57.3183 11.93C56.7983 11.6633 56.3983 11.3233 56.1183 10.91C55.8383 10.4833 55.6983 9.96997 55.6983 9.36997C55.6983 8.83664 55.8716 8.3233 56.2183 7.82997C56.5649 7.33664 57.0716 6.93664 57.7383 6.62997C58.4049 6.30997 59.2249 6.14997 60.1983 6.14997C60.9716 6.14997 61.6383 6.2433 62.1983 6.42997C62.7716 6.6033 63.2516 6.82997 63.6383 7.10997C64.0383 7.38997 64.3383 7.67664 64.5383 7.96997C64.7383 8.2633 64.8449 8.52997 64.8583 8.76997C64.8716 8.9033 64.8316 9.0233 64.7383 9.12997C64.645 9.2233 64.5383 9.26997 64.4183 9.26997H62.3383C62.2849 9.26997 62.2316 9.2633 62.1783 9.24997C62.1249 9.2233 62.0783 9.19664 62.0383 9.16997C61.8783 9.08997 61.7183 8.9833 61.5583 8.84997C61.3983 8.71664 61.2116 8.59664 60.9983 8.48997C60.7849 8.3833 60.5183 8.32997 60.1983 8.32997C59.8383 8.32997 59.5583 8.40997 59.3583 8.56997C59.1583 8.72997 59.0583 8.93664 59.0583 9.18997C59.0583 9.3633 59.1116 9.5233 59.2183 9.66997C59.3383 9.81664 59.5716 9.94997 59.9183 10.07C60.2783 10.19 60.8316 10.3233 61.5783 10.47C62.4983 10.6166 63.2316 10.8566 63.7783 11.19C64.3249 11.51 64.7116 11.89 64.9383 12.33C65.1649 12.7566 65.2783 13.21 65.2783 13.69C65.2783 14.33 65.0849 14.8966 64.6983 15.39C64.3249 15.8833 63.7649 16.27 63.0183 16.55C62.2716 16.8166 61.3649 16.95 60.2983 16.95Z" fill="#8C39FB"/>
<path d="M52.6023 16.75C51.749 16.75 51.009 16.6166 50.3823 16.35C49.769 16.07 49.2957 15.6433 48.9623 15.07C48.629 14.4833 48.4623 13.73 48.4623 12.81V8.96997H46.9023C46.7557 8.96997 46.629 8.9233 46.5223 8.82997C46.429 8.73664 46.3823 8.61664 46.3823 8.46997V6.84997C46.3823 6.7033 46.429 6.5833 46.5223 6.48997C46.629 6.39664 46.7557 6.34997 46.9023 6.34997H48.4623V3.04997C48.4623 2.9033 48.509 2.7833 48.6023 2.68997C48.709 2.59664 48.829 2.54997 48.9623 2.54997H51.2823C51.429 2.54997 51.549 2.59664 51.6423 2.68997C51.7357 2.7833 51.7823 2.9033 51.7823 3.04997V6.34997H54.2823C54.429 6.34997 54.549 6.39664 54.6423 6.48997C54.7357 6.5833 54.7823 6.7033 54.7823 6.84997V8.46997C54.7823 8.61664 54.7357 8.73664 54.6423 8.82997C54.549 8.9233 54.429 8.96997 54.2823 8.96997H51.7823V12.53C51.7823 12.9833 51.869 13.3433 52.0423 13.61C52.2157 13.8766 52.509 14.01 52.9223 14.01H54.4623C54.609 14.01 54.729 14.0566 54.8223 14.15C54.9157 14.2433 54.9623 14.3633 54.9623 14.51V16.25C54.9623 16.3966 54.9157 16.5166 54.8223 16.61C54.729 16.7033 54.609 16.75 54.4623 16.75H52.6023Z" fill="#8C39FB"/>
<path d="M42.6792 16.75C42.5326 16.75 42.4126 16.7033 42.3192 16.61C42.2259 16.5166 42.1792 16.3966 42.1792 16.25V6.84997C42.1792 6.7033 42.2259 6.5833 42.3192 6.48997C42.4126 6.39664 42.5326 6.34997 42.6792 6.34997H45.0392C45.1726 6.34997 45.2859 6.39664 45.3792 6.48997C45.4859 6.5833 45.5392 6.7033 45.5392 6.84997V16.25C45.5392 16.3966 45.4859 16.5166 45.3792 16.61C45.2859 16.7033 45.1726 16.75 45.0392 16.75H42.6792ZM42.6592 4.84997C42.5126 4.84997 42.3926 4.8033 42.2992 4.70997C42.2059 4.61664 42.1592 4.49664 42.1592 4.34997V2.56997C42.1592 2.4233 42.2059 2.3033 42.2992 2.20997C42.3926 2.1033 42.5126 2.04997 42.6592 2.04997H45.0392C45.1859 2.04997 45.3059 2.1033 45.3992 2.20997C45.5059 2.3033 45.5592 2.4233 45.5592 2.56997V4.34997C45.5592 4.49664 45.5059 4.61664 45.3992 4.70997C45.3059 4.8033 45.1859 4.84997 45.0392 4.84997H42.6592Z" fill="#8C39FB"/>
<path d="M36.522 16.95C35.7754 16.95 35.1487 16.8233 34.642 16.57C34.1487 16.3166 33.742 15.9966 33.422 15.61V16.25C33.422 16.3966 33.3687 16.5166 33.262 16.61C33.1687 16.7033 33.0554 16.75 32.922 16.75H30.662C30.5154 16.75 30.3954 16.7033 30.302 16.61C30.2087 16.5166 30.162 16.3966 30.162 16.25V3.04997C30.162 2.9033 30.2087 2.7833 30.302 2.68997C30.3954 2.59664 30.5154 2.54997 30.662 2.54997H33.102C33.2487 2.54997 33.3687 2.59664 33.462 2.68997C33.5554 2.7833 33.602 2.9033 33.602 3.04997V7.32997C33.922 6.9833 34.322 6.7033 34.802 6.48997C35.2954 6.2633 35.8687 6.14997 36.522 6.14997C37.1887 6.14997 37.7754 6.2633 38.282 6.48997C38.802 6.7033 39.242 7.01664 39.602 7.42997C39.962 7.8433 40.242 8.33664 40.442 8.90997C40.642 9.4833 40.7554 10.13 40.782 10.85C40.7954 11.1033 40.802 11.3366 40.802 11.55C40.802 11.75 40.7954 11.9833 40.782 12.25C40.7554 12.9966 40.6354 13.6633 40.422 14.25C40.222 14.8233 39.942 15.3166 39.582 15.73C39.222 16.13 38.7887 16.4366 38.282 16.65C37.7754 16.85 37.1887 16.95 36.522 16.95ZM35.442 14.27C35.8954 14.27 36.2487 14.1766 36.502 13.99C36.7554 13.8033 36.9354 13.55 37.042 13.23C37.162 12.91 37.2354 12.5566 37.262 12.17C37.2887 11.7566 37.2887 11.3433 37.262 10.93C37.2354 10.5433 37.162 10.19 37.042 9.86997C36.9354 9.54997 36.7554 9.29664 36.502 9.10997C36.2487 8.9233 35.8954 8.82997 35.442 8.82997C35.0287 8.82997 34.6887 8.9233 34.422 9.10997C34.1554 9.2833 33.9554 9.51664 33.822 9.80997C33.6887 10.09 33.6154 10.3966 33.602 10.73C33.5887 10.9833 33.582 11.23 33.582 11.47C33.582 11.71 33.5887 11.9633 33.602 12.23C33.6154 12.59 33.682 12.9233 33.802 13.23C33.922 13.5366 34.1154 13.79 34.382 13.99C34.6487 14.1766 35.002 14.27 35.442 14.27Z" fill="#8C39FB"/>
<path d="M22.18 16.75C22.0333 16.75 21.9133 16.7033 21.82 16.61C21.7267 16.5166 21.68 16.3966 21.68 16.25V6.84997C21.68 6.71664 21.7267 6.6033 21.82 6.50997C21.9133 6.4033 22.0333 6.34997 22.18 6.34997H24.48C24.6267 6.34997 24.7467 6.4033 24.84 6.50997C24.9333 6.6033 24.98 6.71664 24.98 6.84997V7.64997C25.34 7.23663 25.7667 6.91663 26.26 6.68997C26.7667 6.4633 27.3333 6.34997 27.96 6.34997H28.84C28.9733 6.34997 29.0867 6.39663 29.18 6.48997C29.2867 6.5833 29.34 6.7033 29.34 6.84997V8.90997C29.34 9.0433 29.2867 9.1633 29.18 9.26997C29.0867 9.3633 28.9733 9.40997 28.84 9.40997H26.9C26.3533 9.40997 25.9267 9.5633 25.62 9.86997C25.3267 10.1633 25.18 10.5833 25.18 11.13V16.25C25.18 16.3966 25.1267 16.5166 25.02 16.61C24.9267 16.7033 24.8067 16.75 24.66 16.75H22.18Z" fill="#8C39FB"/>
<path d="M9.13273 0.165253C9.65503 -0.0412484 10.2327 -0.0542469 10.7619 0.126434L10.8671 0.165253L10.9484 0.199432C11.3467 0.377131 11.6163 0.649549 11.7878 0.845428C11.9653 1.04825 12.1516 1.30659 12.3227 1.54147L13.0756 2.57492L14.3385 2.37643C14.6256 2.33132 14.94 2.28055 15.2089 2.26266C15.4686 2.2454 15.852 2.24322 16.2592 2.39914L16.341 2.43259L16.4428 2.47946C16.9113 2.70947 17.2904 3.08859 17.5204 3.5571L17.5673 3.65891L17.6007 3.74069C17.7567 4.14791 17.7545 4.53126 17.7372 4.79099C17.7193 5.05992 17.6686 5.37431 17.6235 5.66135L17.4247 6.92404L18.4584 7.67722C18.6933 7.8483 18.9516 8.03459 19.1545 8.21213C19.3634 8.39501 19.6594 8.68957 19.8346 9.13278C20.0549 9.6899 20.0549 10.31 19.8346 10.8672C19.6594 11.3104 19.3634 11.6049 19.1545 11.7878C18.9516 11.9653 18.6933 12.1516 18.4584 12.3227L17.4247 13.0757L17.6235 14.3386C17.6686 14.6256 17.7193 14.94 17.7372 15.209C17.7556 15.486 17.7568 15.9037 17.5673 16.341C17.3291 16.8907 16.8907 17.3292 16.341 17.5674C15.9036 17.7569 15.486 17.7557 15.2089 17.7373C14.94 17.7194 14.6256 17.6686 14.3385 17.6235L13.0756 17.4248L12.3227 18.4585C12.1516 18.6934 11.9653 18.9517 11.7878 19.1545C11.6049 19.3634 11.3103 19.6594 10.8671 19.8347C10.31 20.055 9.68986 20.055 9.13273 19.8347C8.68952 19.6594 8.39496 19.3634 8.21208 19.1545C8.03454 18.9517 7.84825 18.6933 7.67717 18.4585L6.92399 17.4248L5.6613 17.6235C5.37426 17.6686 5.05987 17.7194 4.79094 17.7373C4.51388 17.7557 4.0962 17.7569 3.65886 17.5674C3.10916 17.3292 2.67073 16.8907 2.43254 16.341C2.24304 15.9037 2.2442 15.486 2.26262 15.209C2.2805 14.94 2.33127 14.6256 2.37639 14.3386L2.57487 13.0757L1.54142 12.3227C1.30654 12.1516 1.0482 11.9653 0.84538 11.7878C0.636455 11.6049 0.340454 11.3104 0.165204 10.8672C-0.055068 10.31 -0.0550679 9.6899 0.165204 9.13278C0.340454 8.68957 0.636455 8.39501 0.84538 8.21213C1.0482 8.03459 1.30654 7.8483 1.54142 7.67722L2.57487 6.92404L2.37639 5.66135C2.33127 5.37431 2.2805 5.05992 2.26262 4.79099C2.2442 4.51393 2.24304 4.09624 2.43254 3.65891L2.47941 3.5571C2.72586 3.05512 3.14352 2.65589 3.65886 2.43259L3.74064 2.39914C4.14787 2.24322 4.53121 2.2454 4.79094 2.26266C5.05987 2.28055 5.37426 2.33132 5.6613 2.37643L6.92399 2.57492L7.67717 1.54147C7.84825 1.30659 8.03455 1.04825 8.21208 0.845428C8.39496 0.636503 8.68952 0.340503 9.13273 0.165253ZM9.30388 4.40378C9.18763 4.56338 8.93649 4.94071 8.5673 5.19992C8.28383 5.39894 7.95999 5.53302 7.61882 5.59274C7.17454 5.6705 6.73017 5.58142 6.53508 5.55075L5.36686 5.36691L5.5507 6.53513C5.58137 6.73022 5.67045 7.17459 5.59269 7.61887C5.53297 7.96004 5.39889 8.28388 5.19987 8.56735C4.94066 8.93654 4.56333 9.18768 4.40373 9.30392L3.44816 9.99997L4.40373 10.696C4.55334 10.805 4.89421 11.0325 5.14982 11.3647L5.19987 11.4326L5.27141 11.5407C5.43123 11.7973 5.54043 12.0825 5.59269 12.3811C5.67045 12.8254 5.58137 13.2697 5.5507 13.4648L5.36686 14.6328L6.53508 14.4492C6.71798 14.4204 7.11994 14.3403 7.53557 14.3945L7.61882 14.4072L7.74577 14.4331C8.04023 14.5015 8.31924 14.6259 8.5673 14.8C8.93649 15.0592 9.18763 15.4366 9.30388 15.5962L9.99992 16.5515L10.696 15.5962C10.8122 15.4366 11.0633 15.0592 11.4325 14.8L11.5407 14.7285C11.7972 14.5687 12.0825 14.4595 12.381 14.4072L12.4643 14.3945C12.8799 14.3403 13.2819 14.4204 13.4648 14.4492L14.6327 14.6328L14.4491 13.4648C14.4185 13.2697 14.3294 12.8254 14.4071 12.3811L14.433 12.2541C14.5014 11.9597 14.6258 11.6807 14.8 11.4326L14.85 11.3647C15.1056 11.0325 15.4465 10.805 15.5961 10.696L16.5514 9.99997L15.5961 9.30392C15.4365 9.18768 15.0592 8.93654 14.8 8.56735C14.601 8.28388 14.4669 7.96004 14.4071 7.61887C14.3294 7.17459 14.4185 6.73022 14.4491 6.53513L14.6327 5.36691L13.4648 5.55075C13.2697 5.58142 12.8253 5.6705 12.381 5.59274C12.0399 5.53302 11.716 5.39894 11.4325 5.19992C11.0633 4.94071 10.8122 4.56338 10.696 4.40378L9.99992 3.44821L9.30388 4.40378Z" fill="#8C39FB"/>
</svg>
