<svg width="17" height="17" viewBox="0 0 17 17" fill="none" xmlns="http://www.w3.org/2000/svg">
<path fill-rule="evenodd" clip-rule="evenodd" d="M7.88143 0.171831C8.13917 -0.0572771 8.52758 -0.0572771 8.78533 0.171831L16.4384 6.97459C16.5837 7.10368 16.6667 7.28872 16.6667 7.48303V15.9865C16.6667 16.3622 16.3622 16.6667 15.9865 16.6667H10.8844C10.5087 16.6667 10.2041 16.3622 10.2041 15.9865V11.7348C10.2041 10.6649 9.40326 9.864 8.33338 9.864C7.2635 9.864 6.46262 10.6649 6.46262 11.7348V15.9864C6.46262 16.3621 6.15805 16.6667 5.78234 16.6667H0.680276C0.30457 16.6667 0 16.3622 0 15.9865V7.48303C0 7.28872 0.0830942 7.10368 0.228325 6.97459L7.88143 0.171831ZM5.10207 15.3058V11.7348C5.10207 9.91346 6.51208 8.50344 8.33338 8.50344C10.1547 8.50344 11.5647 9.91346 11.5647 11.7348V15.3062H15.3062V7.78852L8.33338 1.59045L1.36055 7.78852V15.3062L5.10207 15.3058Z" fill="#1A1A1A"/>
</svg>
