<svg width="17" height="15" viewBox="0 0 17 15" fill="none" xmlns="http://www.w3.org/2000/svg">
<path fill-rule="evenodd" clip-rule="evenodd" d="M1.67115 1.72115C2.42126 0.971268 3.43849 0.550007 4.49914 0.550007C5.5598 0.550007 6.57703 0.971268 7.32714 1.72115L8.49914 2.89215L9.67114 1.72115C10.0401 1.33911 10.4815 1.03438 10.9695 0.824747C11.4575 0.615111 11.9824 0.504766 12.5135 0.500151C13.0447 0.495536 13.5714 0.596743 14.063 0.797866C14.5545 0.99899 15.0012 1.296 15.3767 1.67157C15.7523 2.04714 16.0493 2.49375 16.2504 2.98534C16.4516 3.47692 16.5528 4.00364 16.5481 4.53476C16.5435 5.06587 16.4332 5.59076 16.2235 6.07877C16.0139 6.56679 15.7092 7.00817 15.3271 7.37715L8.49914 14.2062L1.67115 7.37715C0.921261 6.62704 0.5 5.60981 0.5 4.54915C0.5 3.4885 0.921261 2.47126 1.67115 1.72115V1.72115Z" stroke="#BFBFBF" stroke-linejoin="round"/>
</svg>
