<svg width="20" height="20" viewBox="0 0 20 20" fill="none" xmlns="http://www.w3.org/2000/svg">
<path fill-rule="evenodd" clip-rule="evenodd" d="M3.17115 5.17232C3.92126 4.42244 4.93849 4.00118 5.99914 4.00118C7.0598 4.00118 8.07703 4.42244 8.82714 5.17232L9.99914 6.34332L11.1711 5.17232C11.5401 4.79028 11.9815 4.48555 12.4695 4.27592C12.9575 4.06628 13.4824 3.95594 14.0135 3.95132C14.5447 3.94671 15.0714 4.04791 15.563 4.24904C16.0545 4.45016 16.5012 4.74717 16.8767 5.12274C17.2523 5.49832 17.5493 5.94492 17.7504 6.43651C17.9516 6.92809 18.0528 7.45481 18.0481 7.98593C18.0435 8.51705 17.9332 9.04193 17.7235 9.52994C17.5139 10.018 17.2092 10.4593 16.8271 10.8283L9.99914 17.6573L3.17115 10.8283C2.42126 10.0782 2 9.06098 2 8.00032C2 6.93967 2.42126 5.92244 3.17115 5.17232Z" fill="#EF4559"/>
</svg>
